<svg width="176" height="176" viewBox="0 0 176 176" fill="none" xmlns="http://www.w3.org/2000/svg">
<rect x="3" y="49.8303" width="170" height="49.8695" rx="9" fill="url(#paint0_linear)"/>
<rect x="21" y="0.958252" width="137" height="98.7415" rx="9" fill="url(#paint1_linear)"/>
<path d="M174.132 98.9895C175.128 90.0992 168.171 82.3187 159.225 82.3187H57.2957C52.0557 82.3187 47.7043 78.2738 47.3223 73.0478L47.1777 71.0699C46.7957 65.8439 42.4443 61.799 37.2043 61.799H10.9616C5.07721 61.799 0.464844 66.8548 1.0036 72.7145L9.66475 166.916C10.1379 172.062 14.4547 176 19.6227 176H156.558C161.65 176 165.929 172.174 166.496 167.114L174.132 98.9895Z" fill="#F3F4F4"/>
<path d="M37 19.9087H88" stroke="#DCDEE4" stroke-width="6" stroke-linecap="round"/>
<path d="M37 31.8773H60" stroke="#DCDEE4" stroke-width="6" stroke-linecap="round"/>
<defs>
<linearGradient id="paint0_linear" x1="87.2756" y1="49.8303" x2="87.2756" y2="99.6998" gradientUnits="userSpaceOnUse">
<stop stop-color="#E4E7ED"/>
<stop offset="1" stop-color="#D8DBE2"/>
</linearGradient>
<linearGradient id="paint1_linear" x1="89.5" y1="0.958252" x2="89.5" y2="176.224" gradientUnits="userSpaceOnUse">
<stop stop-color="#F3F4F4"/>
<stop offset="1" stop-color="#DFE2E8"/>
</linearGradient>
</defs>
</svg>
